<?xml version="1.0" encoding="utf-8"?>
<!-- Generator: Adobe Illustrator 27.5.0, SVG Export Plug-In . SVG Version: 6.00 Build 0)  -->
<svg version="1.1" xmlns="http://www.w3.org/2000/svg" xmlns:xlink="http://www.w3.org/1999/xlink" x="0px" y="0px"
	 viewBox="0 0 500 500" style="enable-background:new 0 0 500 500;" xml:space="preserve">
<g id="BACKGROUND">
	<rect style="fill:#06283D;" width="500" height="500"/>
</g>
<g id="OBJECTS">
	<g>
		<path style="fill:#353EE5;" d="M199.55,158.873c-34.936,34.936-34.941,91.605,0.009,126.555
			c34.944,34.944,91.618,34.945,126.555,0.009c34.957-34.957,34.953-91.628,0.009-126.572
			C291.173,123.915,234.508,123.916,199.55,158.873z"/>
		<polygon style="fill:#353EE5;" points="306.148,289.647 289.567,273.067 313.76,248.874 330.341,265.454 336.762,259.033 
			341.263,300.566 299.729,296.067 		"/>
	</g>
	<g>
		<g>
			<g>
				<path style="fill:#FFD32E;" d="M300.449,139.562c34.936,34.936,34.941,91.605-0.009,126.555
					c-34.944,34.944-91.618,34.945-126.555,0.009c-34.957-34.957-34.953-91.628-0.009-126.572
					C208.827,104.603,265.492,104.605,300.449,139.562z"/>
			</g>
			<g>
				<polygon style="fill:#FFD32E;" points="193.852,270.336 210.433,253.755 186.24,229.562 169.659,246.143 163.238,239.722 
					158.737,281.255 200.271,276.755 				"/>
			</g>
		</g>
	</g>
	<path style="fill-rule:evenodd;clip-rule:evenodd;fill:#353EE5;" d="M237.514,185.148c-2.453,3.258-10.306,19.436-10.203,22.958
		c0.074,2.536,0.703,5.417-2.323,7.319c-3.026,1.901-5.658,4.879-8.124,7.307c-2.467,2.429-5.482,4.692-3.032,7.883
		c2.45,3.191,5.875,2.547,5.225,5.104c-0.65,2.557-3.191,2.45-2.376,5.508c0.815,3.058,2.636,3.367,2.636,3.367
		s-2.637,2.796-1.503,4.394c1.135,1.598,2.6,2.099,1.747,3.937c-0.852,1.838-5.226,7.223-1.812,12.379
		c3.414,5.157,15.016,5.179,17.903,4.732c2.887-0.447,4.667-1.587,4.81,3.303c0.143,4.89,3.138,8.102,3.211,10.601
		c0.073,2.499-0.576,4.758,0.349,8.768l58.376,5.107c-4.02-9.26-10.086-20.096-8.428-29.488
		c1.866-10.568,5.915-15.531,13.543-22.722c7.627-7.191,20.133-26.484,11.639-48.878c-8.495-22.394-36.189-30.929-52.566-29.415
		C250.209,168.824,241.159,177.097,237.514,185.148z"/>
	<g>
		<path style="fill:#353EE5;" d="M160.345,121.447c-15.408,15.408-15.41,40.401,0.004,55.815
			c15.412,15.412,40.407,15.412,55.815,0.004c15.417-15.417,15.416-40.412,0.004-55.823
			C200.754,106.029,175.762,106.03,160.345,121.447z"/>
		<polygon style="fill:#353EE5;" points="207.359,179.124 200.046,171.811 210.716,161.141 218.029,168.454 220.861,165.622 
			222.846,183.94 204.527,181.955 		"/>
		<g>
			<circle style="fill:#FFFFFF;" cx="171.682" cy="149.909" r="6.136"/>
			<circle style="fill:#FFFFFF;" cx="188.258" cy="149.909" r="6.136"/>
			<circle style="fill:#FFFFFF;" cx="204.834" cy="149.909" r="6.136"/>
		</g>
	</g>
</g>
<g id="TEXTS">
	
		<text transform="matrix(1.0008 0 0 1 138.5957 362.2754)" style="fill:#FFFFFF; font-family:'Montserrat-ExtraBold'; font-size:39.8969px;">COMPANY</text>
	<g>
		
			<text transform="matrix(1.0008 0 0 1 196.7095 389.667)" style="fill:#FFD32E; font-family:'Montserrat-Medium'; font-size:21.7106px; letter-spacing:0.999;">TAGLINE</text>
	</g>
</g>
</svg>
